<svg width="48" height="48" viewBox="0 0 48 48" fill="none" xmlns="http://www.w3.org/2000/svg">
<g clip-path="url(#clip0_1220_5724)">
<path d="M48 0H0L4.23529 42.9474L24 48L43.7647 42.9474L48 0Z" fill="#0277BD"/>
<path d="M24 3.78906V44.0838L39.8118 40.0417L43.3412 3.78906H24Z" fill="#039BE5"/>
<path d="M36.8471 10.1055H24V15.1581H30.9176L30.4941 20.2107H24V25.2634H30.2118L29.7882 30.9476L24 32.716V38.0213L35.1529 34.737L36.1412 20.2107L36.8471 10.1055Z" fill="white"/>
<path d="M24 10.1055V15.1581H11.4352L11.0117 10.1055H24ZM17.5058 20.2107L17.7882 25.2634H24V20.2107H17.5058ZM18.0705 27.7897H12.4235L12.847 34.737L24 38.0213V32.716L18.2117 30.9476L18.0705 27.7897Z" fill="#EEEEEE"/>
</g>
<defs>
<clipPath id="clip0_1220_5724">
<rect width="48" height="48" fill="white"/>
</clipPath>
</defs>
</svg>
