<svg width="48" height="48" viewBox="0 0 48 48" fill="none" xmlns="http://www.w3.org/2000/svg">
<g clip-path="url(#clip0_1220_5759)">
<path d="M48 0H0L4.23529 42.9474L24 48L43.7647 42.9474L48 0Z" fill="#E65100"/>
<path d="M24 3.78906V44.0838L39.8118 40.0417L43.3412 3.78906H24Z" fill="#FF6D00"/>
<path d="M24 25.2634V20.2107H36.1412L35.1529 34.737L24 38.0213V32.716L29.7882 30.9476L30.2118 25.2634H24ZM36.5647 15.1581L36.9882 10.1055H24V15.1581H36.5647Z" fill="white"/>
<path d="M24.0004 32.716V38.0213L12.8474 34.737L12.2827 27.7897H17.9298L18.2121 30.9476L24.0004 32.716ZM17.0827 15.1581H24.0004V10.1055H11.1533L12.1416 25.2634H24.0004V20.2107H17.5063L17.0827 15.1581Z" fill="#EEEEEE"/>
</g>
<defs>
<clipPath id="clip0_1220_5759">
<rect width="48" height="48" fill="white"/>
</clipPath>
</defs>
</svg>
