<svg width="48" height="48" viewBox="0 0 48 48" fill="none" xmlns="http://www.w3.org/2000/svg">
<g clip-path="url(#clip0_1220_5703)">
<path d="M0 48V0H48V48H0Z" fill="#F7DF1E"/>
<path d="M31.3843 35.929C32.307 37.4277 33.3097 38.8637 35.4337 38.8637C37.2177 38.8637 38.1537 37.977 38.1537 36.7503C38.1537 35.2823 37.1857 34.761 35.223 33.9063L34.147 33.4477C31.0417 32.1303 28.9763 30.4797 28.9763 26.993C28.9763 23.7797 31.4363 21.3343 35.2803 21.3343C38.0177 21.3343 39.9843 22.2823 41.403 24.765L38.051 26.9077C37.3137 25.5903 36.5163 25.0717 35.2803 25.0717C34.019 25.0717 33.2203 25.8677 33.2203 26.9077C33.2203 28.193 34.0203 28.713 35.867 29.509L36.943 29.9677C40.603 31.5263 42.667 33.1183 42.667 36.697C42.667 40.553 39.6217 42.6663 35.5337 42.6663C31.535 42.6663 29.2643 40.6597 28.0003 38.1757L31.3843 35.929ZM15.9363 36.0383C16.611 37.2463 17.6363 38.1757 19.111 38.1757C20.5217 38.1757 21.3337 37.6183 21.3337 35.4517V21.333H25.7777V36.1343C25.7777 40.6237 23.1737 42.6663 19.371 42.6663C15.935 42.6663 13.455 40.3383 12.4443 38.1757L15.9363 36.0383Z" fill="#000001"/>
</g>
<defs>
<clipPath id="clip0_1220_5703">
<rect width="48" height="48" fill="white"/>
</clipPath>
</defs>
</svg>
