<svg width="48" height="48" viewBox="0 0 36 48" fill="none" xmlns="http://www.w3.org/2000/svg">
<g clip-path="url(#clip0_1220_5782)">
<path d="M17.5799 25.0778C16.3823 23.147 15.5135 21.5462 14.3099 18.5318C12.2747 13.4402 26.6879 8.83942 20.8439 -0.000976562C23.3771 6.10582 11.7515 9.88102 10.6715 14.9666C9.68388 19.6442 17.5739 25.0778 17.5799 25.0778Z" fill="#F44336"/>
<path d="M17.8538 15.9242C17.6234 18.9434 20.5286 20.5526 20.6126 22.7582C20.6798 24.5534 18.8762 26.0498 18.8762 26.0498C18.8762 26.0498 22.1498 25.4066 23.171 22.6682C24.305 19.6274 20.9702 17.5454 21.3134 15.1106C21.6338 12.785 28.5506 8.45898 28.5506 8.45898C28.5506 8.45898 18.3734 9.13339 17.8538 15.9242Z" fill="#F44336"/>
<path d="M27.6999 25.2659C29.8047 24.7931 31.5796 26.1335 31.5796 27.6779C31.5796 31.1591 26.7543 34.4495 26.7543 34.4495C26.7543 34.4495 34.2243 33.5591 34.2243 27.8435C34.2243 24.0635 30.5559 23.1191 27.6999 25.2659ZM24.1539 28.0739C24.1539 28.0739 26.4831 26.4143 27.1035 25.7915C21.3879 27.0047 8.33795 27.1679 8.33795 26.1143C8.33795 25.1435 12.5463 24.1487 12.5463 24.1487C12.5463 24.1487 3.21875 24.0143 3.21875 26.7659C3.21875 29.6339 15.4287 29.8391 24.1539 28.0739Z" fill="#1565C0"/>
<path d="M22.7221 30.6848C17.3113 32.4836 7.34531 31.9088 10.2973 29.4932C8.85971 29.4932 6.72852 30.6488 6.72852 31.76C6.72852 33.9884 17.5069 35.7092 25.4845 32.4464L22.7221 30.6848Z" fill="#1565C0"/>
<path d="M11.6236 34.4863C9.66045 34.4863 8.38965 35.7511 8.38965 36.6727C8.38965 39.5419 20.1016 39.8311 24.742 36.9187L21.7924 34.9603C18.3256 36.4843 9.61725 36.6943 11.6236 34.4863Z" fill="#1565C0"/>
<path d="M32.7372 39.1581C32.7372 38.0349 31.4712 37.5057 31.0176 37.2525C33.6912 43.7001 4.2372 43.1997 4.2372 39.3933C4.2372 38.5281 6.4056 37.6809 8.4096 38.0817L6.7056 37.0749C2.712 36.4485 0 38.2041 0 39.6201C0 46.2237 32.7372 45.9057 32.7372 39.1581Z" fill="#1565C0"/>
<path d="M35.9999 41.5254C31.0247 46.4394 18.4091 48.2298 5.72266 45.1938C18.4091 50.5974 35.9399 47.5542 35.9999 41.5254Z" fill="#1565C0"/>
</g>
<defs>
<clipPath id="clip0_1220_5782">
<rect width="36" height="48" fill="white"/>
</clipPath>
</defs>
</svg>
