<svg width="48" height="48" viewBox="0 0 48 48" fill="none" xmlns="http://www.w3.org/2000/svg">
<g clip-path="url(#clip0_1220_5698)">
<path d="M0 24V48H24H48V24V0H24H0V24Z" fill="#007ACC"/>
<path d="M10.6146 24.1589L10.5994 26.1246H13.7232H16.847V35.0008V43.877H19.0565H21.2661V35.0008V26.1246H24.3899H27.5137V24.197C27.5137 23.1303 27.4908 22.2389 27.4603 22.216C27.4375 22.1855 23.6356 22.1703 19.0261 22.1779L10.6375 22.2008L10.6146 24.1589Z" fill="white"/>
<path d="M38.732 22.1448C39.951 22.4495 40.8805 22.9905 41.7339 23.8743C42.1758 24.3467 42.831 25.2076 42.8843 25.4133C42.8996 25.4743 40.812 26.8762 39.5472 27.661C39.5015 27.6914 39.3186 27.4933 39.1129 27.1886C38.4958 26.2895 37.8481 25.901 36.8577 25.8324C35.4024 25.7333 34.4653 26.4952 34.4729 27.7676C34.4729 28.141 34.5262 28.3619 34.6786 28.6667C34.9986 29.3295 35.5929 29.7257 37.4596 30.5333C40.8958 32.0114 42.3662 32.9867 43.2805 34.3733C44.3015 35.92 44.5301 38.3886 43.8367 40.2248C43.0748 42.221 41.1853 43.5771 38.5262 44.0267C37.7034 44.1714 35.7529 44.1486 34.8691 43.9886C32.9415 43.6457 31.1129 42.6933 29.9853 41.4438C29.5434 40.9562 28.6824 39.6838 28.7358 39.5924C28.7586 39.5619 28.9567 39.44 29.1777 39.3105C29.391 39.1886 30.1986 38.7238 30.9605 38.2819L32.3396 37.4819L32.6291 37.9086C33.0329 38.5257 33.9167 39.3714 34.4501 39.6533C35.9815 40.461 38.0843 40.3467 39.1205 39.4171C39.5624 39.0133 39.7453 38.5943 39.7453 37.9771C39.7453 37.421 39.6767 37.1771 39.3872 36.7581C39.0139 36.2248 38.252 35.7752 36.0881 34.8381C33.612 33.7714 32.5453 33.1086 31.5701 32.0571C31.0062 31.4476 30.4729 30.4724 30.252 29.6571C30.0691 28.9791 30.0234 27.28 30.1681 26.5943C30.6786 24.2019 32.4843 22.5333 35.0901 22.0381C35.9358 21.8781 37.9015 21.9391 38.732 22.1448Z" fill="white"/>
</g>
<defs>
<clipPath id="clip0_1220_5698">
<rect width="48" height="48" fill="white"/>
</clipPath>
</defs>
</svg>
